<svg width="97" height="99" viewBox="0 0 97 99" fill="none" xmlns="http://www.w3.org/2000/svg">
<path fill-rule="evenodd" clip-rule="evenodd" d="M93.5027 47.6251C93.5027 47.349 93.2789 47.1251 93.0027 47.1251H20.8191C20.5429 47.1251 20.3191 47.349 20.3191 47.6251V97.9204C20.3191 98.1966 20.543 98.4204 20.8191 98.4204H47.6287C47.9048 98.4204 48.1287 98.1966 48.1287 97.9204V80.4726C48.1287 77.7111 50.3672 75.4726 53.1287 75.4726H60.6927C63.4542 75.4726 65.6927 77.7111 65.6927 80.4726V97.9204C65.6927 98.1966 65.9166 98.4204 66.1927 98.4204H93.0027C93.2789 98.4204 93.5027 98.1966 93.5027 97.9204V47.6251Z" fill="black"/>
<path d="M90.6759 43.5976H23.0551C21.1687 43.5976 20.3311 41.2256 21.7992 40.0411L55.268 13.0361C55.9952 12.4494 57.0316 12.4443 57.7644 13.0238L91.9164 40.0288C93.4038 41.2049 92.5721 43.5976 90.6759 43.5976Z" fill="black"/>
<path d="M20.9259 20.8897V5.00864C20.9259 3.51402 19.3463 2.5475 18.0155 3.22788L3.30177 10.7505C1.88468 11.475 1.84048 13.4841 3.22434 14.2703L17.938 22.6287C19.2713 23.3861 20.9259 22.4231 20.9259 20.8897Z" fill="black"/>
<path fill-rule="evenodd" clip-rule="evenodd" d="M27.2035 2.73987C27.2035 2.18758 26.7558 1.73987 26.2035 1.73987H24.0183C23.466 1.73987 23.0183 2.18758 23.0183 2.73987V33.2644C23.0183 34.0732 23.9285 34.5474 24.5913 34.0839L26.7765 32.556C27.0441 32.3689 27.2035 32.0629 27.2035 31.7365V2.73987Z" fill="black"/>
</svg>
